# Aspose.3D Wavefront OBJ Exporter
# Copyright 2004-2019 Aspose Pty Ltd.
# File created: 3/2/2020 4:48:38 AM

mtllib Cold_Generator.mtl

#
# object pCube1
#

v -188.68716430664062496 0 116.32929992675781248
v 188.68716430664062496 0 116.32929992675781248
v -188.68716430664062496 209.77633666992187504 6.60566806793212888
v 188.68716430664062496 209.77633666992187504 6.60566806793212888
v -188.68716430664062496 209.77633666992187504 -85.273406982421875
v 188.68716430664062496 209.77633666992187504 -85.273406982421875
v -188.68716430664062496 0 -116.32929992675781248
v 188.68716430664062496 0 -116.32929992675781248
v -188.68716430664062496 104.88816833496093744 116.32929992675781248
v 188.68716430664062496 104.88816833496093744 116.32929992675781248
v 188.68716430664062496 104.88816833496093744 -116.32929992675781248
v -188.68716430664062496 104.88816833496093744 -116.32929992675781248
v 75.47486877441406248 0 116.32929992675781248
v 75.47486877441406248 0 -116.32929992675781248
v 75.47486877441406248 104.88816833496093744 -116.32929992675781248
v 75.47486877441406248 209.77633666992187504 -85.273406982421875
v 75.47486877441406248 209.77633666992187504 6.60566806793212888
v 75.47486877441406248 104.88816833496093744 116.32929992675781248
v 166.044708251953125 104.88816833496093744 -116.32929992675781248
v 166.044708251953125 0 -116.32929992675781248
v 166.044708251953125 0 116.32929992675781248
v 166.044708251953125 104.88816833496093744 116.32929992675781248
v 166.044708251953125 209.77633666992187504 6.60566806793212888
v 166.044708251953125 209.77633666992187504 -85.273406982421875
v 79.126953125 269.7763671875 -81.56852722167968752
v 79.126953125 269.7763671875 2.90079021453857424
v 162.39262390136718752 269.7763671875 2.90079021453857424
v 162.39262390136718752 269.7763671875 -81.56852722167968752
v 91.62444305419921872 269.7763671875 -54.60557556152343752
v 91.62444305419921872 269.7763671875 -24.062164306640625
v 121.30003356933593752 269.7763671875 -24.062164306640625
v 121.30003356933593752 269.7763671875 -54.60557556152343752
v 94.70236206054687504 319.7763671875 -51.43763732910156248
v 94.70236206054687504 319.7763671875 -27.23009872436523436
v 118.22210693359375 319.7763671875 -27.23009872436523436
v 118.22210693359375 319.7763671875 -51.43763732910156248
v -172.38716125488281248 116.151458740234375 104.54676055908203128
v 59.17487335205078124 116.151458740234375 104.54676055908203128
v 59.17487335205078124 198.51304626464843752 18.38821029663085936
v -172.38716125488281248 198.51304626464843752 18.38821029663085936
v -157.196685791015625 113.68221282958984376 91.132171630859375
v 43.98440170288085936 113.68221282958984376 91.132171630859375
v 43.98440170288085936 185.238006591796875 16.27762985229492188
v -157.196685791015625 185.238006591796875 16.27762985229492188
# 44 vertices

vn 3.61751806288169E-09 0.72285532951354976 0.69099944829940792
vn 1.21186205515045E-09 0.24215517938137056 0.97023749351501472
vn 0 0.46347925066947936 0.88610780239105232
vn 0 0.72285532951354976 0.69099944829940792
vn 0 1 0
vn 0 1 0
vn 0 1 0
vn 0 1 0
vn 0 0.14644676446914672 -0.98921859264373776
vn 0 0.25909793376922608 -0.96585106849670416
vn 0 0.22092096507549284 -0.9752916097640992
vn 0 0.14644677937030792 -0.98921853303909296
vn 1 0 0
vn 1 0 0
vn 1 0 0
vn 1 0 0
vn -1 -1.04113935250894E-08 0
vn -1 -7.25878956941983E-09 0
vn -1 -2.86885359912503E-08 0
vn -1 -2.86885342148935E-08 0
vn 1.21186205515045E-09 0.24215517938137056 0.97023749351501472
vn 0 0 1
vn 0 0 1
vn 0 0.46347925066947936 0.88610780239105232
vn 1 0 0
vn 1 0 0
vn 1 0 0
vn 1 0 0
vn 0 0 -1
vn 0 0.14644676446914672 -0.98921859264373776
vn 0 0.14644677937030792 -0.98921853303909296
vn 0 0 -1
vn -1 0 0
vn -1 0 0
vn -1 -7.25878956941983E-09 0
vn -1 -1.04113935250894E-08 0
vn 0 0.14644674956798554 -0.98921847343444832
vn 0 0.14644676446914672 -0.98921859264373776
vn 0 0 -1
vn 0 0 -1
vn 0 0.28390273451805116 -0.95885318517684944
vn 0 0.25909793376922608 -0.96585106849670416
vn 0 0.14644676446914672 -0.98921859264373776
vn 0 0.14644674956798554 -0.98921847343444832
vn 0 1 0
vn 0 1 0
vn 0 1 0
vn 0 1 0
vn 0 0.72285503149032592 0.69099962711334232
vn 0 0.72285503149032592 0.69099962711334232
vn 0 0.72285503149032592 0.69099962711334232
vn 0 0.72285503149032592 0.69099962711334232
vn 0 0 1
vn 0 0 1
vn 1.21186205515045E-09 0.24215517938137056 0.97023749351501472
vn 0 0 1
vn 0 0 -1
vn 0 0.14644677937030792 -0.98921853303909296
vn 0 0.14644676446914672 -0.98921853303909296
vn 0 0 -1
vn 0 0.46347925066947936 0.88610780239105232
vn 0 0 1
vn 0 0 1
vn 0 0.46347916126251224 0.88610786199569696
vn 0 0.72285532951354976 0.69099944829940792
vn 0 0.46347925066947936 0.88610780239105232
vn 0 0.46347916126251224 0.88610786199569696
vn 0 0.72285521030426032 0.69099944829940792
vn 0 1 0
vn 0 1 0
vn 0 1 0
vn 0 1 0
vn 0 0.14644677937030792 -0.98921853303909296
vn 0 0.22092096507549284 -0.9752916097640992
vn 0 0.28390273451805116 -0.95885306596755984
vn 0 0.14644676446914672 -0.98921853303909296
vn -0.99815267324447632 0.06075557693839073 0
vn -0.99815273284912112 0.06075558066368103 0
vn -0.99815273284912112 0.06075558438897133 0
vn -0.99815273284912112 0.06075558438897133 0
vn 0 0.06163054332137108 0.9980990290641784
vn 0 0.06163054332137108 0.9980990290641784
vn 0 0.06163054704666138 0.9980990290641784
vn 0 0.06163054704666138 0.9980990290641784
vn 0.99815267324447632 0.06075578182935715 0
vn 0.99815273284912112 0.06075578555464745 0
vn 0.99815261363983152 0.06075577437877655 0
vn 0.99815261363983152 0.06075577437877655 0
vn 0 0.22092096507549284 -0.9752916097640992
vn 0 0.25909793376922608 -0.96585106849670416
vn 0 0.06163057684898376 -0.9980990290641784
vn 0 0.06163057684898376 -0.9980990290641784
vn 0 0.9999999403953552 -5.43435646704893E-07
vn 0 1 2.71717823352446E-07
vn 0 1 1.95843824712938E-07
vn 0 1 -3.91687677847585E-07
vn 0 1 2.71717823352446E-07
vn 0 1 8.79496795391788E-08
vn 0 1 1.39194554549249E-07
vn 0 1 1.95843824712938E-07
vn 0 1 8.79496795391788E-08
vn 0 1 -1.75899302234939E-07
vn 0 1 -2.78389137520207E-07
vn 0 1 1.39194554549249E-07
vn 0 1 -1.75899302234939E-07
vn 0 0.9999999403953552 -5.43435646704893E-07
vn 0 1 -3.91687677847585E-07
vn 0 1 -2.78389137520207E-07
vn -0.9981107115745544 0.0614420548081398 0
vn -0.9981107115745544 0.0614420510828495 0
vn -0.9981106519699096 0.0614420473575592 0
vn -0.99811059236526496 0.0614420473575592 0
vn 0 0.06323186308145523 0.99799877405166624
vn 0 0.06323186308145523 0.99799883365631104
vn 0 0.06323186308145523 0.99799889326095584
vn 0 0.06323187053203583 0.99799889326095584
vn 0.9981107115745544 0.06144213676452637 0
vn 0.9981107115745544 0.06144214048981667 0
vn 0.99811059236526496 0.06144213303923607 0
vn 0.9981106519699096 0.06144213676452637 0
vn 0 0.0632319375872612 -0.99799877405166624
vn 0 0.0632319450378418 -0.99799883365631104
vn 0 0.0632319450378418 -0.99799889326095584
vn 0 0.0632319450378418 -0.99799889326095584
vn 2.93031128251187E-08 0.72285521030426032 0.69099950790405272
vn 1.21186205515045E-09 0.24215517938137056 0.97023749351501472
vn 1.95354132870307E-08 0.72285526990890496 0.69099950790405272
vn 2.93031021669776E-08 0.72285526990890496 0.69099950790405272
vn 1.21186205515045E-09 0.24215517938137056 0.97023749351501472
vn 3.61751806288169E-09 0.72285532951354976 0.69099944829940792
vn 1.95354150633875E-08 0.72285526990890496 0.69099950790405272
vn 1.95354132870307E-08 0.72285526990890496 0.69099950790405272
vn 3.61751806288169E-09 0.72285532951354976 0.69099944829940792
vn 2.93031181541892E-08 0.72285526990890496 0.69099950790405272
vn 2.93031039433345E-08 0.72285526990890496 0.69099944829940792
vn 1.95354150633875E-08 0.72285526990890496 0.69099950790405272
vn 2.93031181541892E-08 0.72285526990890496 0.69099950790405272
vn 2.93031128251187E-08 0.72285521030426032 0.69099950790405272
vn 2.93031021669776E-08 0.72285526990890496 0.69099950790405272
vn 2.93031039433345E-08 0.72285526990890496 0.69099944829940792
vn 0 0.98347741365432736 -0.18103095889091492
vn 0 0.98347741365432736 -0.18103098869323732
vn 0 0.98347735404968256 -0.18103097379207612
vn 0 0.98347735404968256 -0.18103097379207612
vn -0.58840644359588624 0.5844756364822388 0.55871826410293576
vn -0.58840650320053104 0.5844756364822388 0.55871826410293576
vn -0.58840650320053104 0.5844756364822388 0.55871832370758056
vn -0.58840644359588624 0.5844756364822388 0.55871820449829104
vn 0 -0.15701638162136078 0.98759597539901728
vn 0 -0.15701639652252198 0.98759597539901728
vn 0 -0.15701638162136078 0.98759597539901728
vn 0 -0.15701638162136078 0.98759597539901728
vn 0.58840632438659664 0.58447593450546264 0.55871808528900144
vn 0.58840626478195192 0.58447599411010744 0.55871808528900144
vn 0.58840632438659664 0.58447593450546264 0.55871814489364624
vn 0.58840638399124144 0.58447599411010744 0.55871808528900144
# 156 vertex normals

vt 0.761532723903656 0.01667268015444278 0
vt 0.41513437032699584 0.92940974235534672 0
vt 0.01870113611221313 0.45723679661750792 0
vt 0.01686589792370796 0.31297194957733156 0
vt 0.49482241272926328 0.43282416462898256 0
vt 0.21375606954097748 0.31297194957733156 0
vt 0.49482229351997376 0.01667268015444278 0
vt 0.21375606954097748 0.01667268015444278 0
vt 0.01870113611221313 0.73449248075485232 0
vt 0.41513437032699584 0.73449248075485232 0
vt 0.21375606954097748 0.12953309714794158 0
vt 0.49482229351997376 0.12953309714794158 0
vt 0.29818904399871828 0.92940974235534672 0
vt 0.29869887232780456 0.01667268015444278 0
vt 0.29869887232780456 0.12953309714794158 0
vt 0.4500054717063904 0.63139528036117552 0
vt 0.29818904399871828 0.45723679661750792 0
vt 0.29818904399871828 0.73449248075485232 0
vt 0.26137512922286988 0.12953309714794158 0
vt 0.26137512922286988 0.01667268015444278 0
vt 0.39174234867095944 0.92940974235534672 0
vt 0.39174234867095944 0.73449248075485232 0
vt 0.5941656827926636 0.63139528036117552 0
vt 0.68534272909164432 0.63139528036117552 0
vt 0.4500054717063904 0.71831583976745608 0
vt 0.50272583961486816 0.71831583976745608 0
vt 0.5941656827926636 0.71831583976745608 0
vt 0.68534272909164432 0.71831583976745608 0
vt 0.5122796893119812 0.81626355648040768 0
vt 0.55232191085815432 0.81626355648040768 0
vt 0.44794461131095888 0.81626355648040768 0
vt 0.48884436488151552 0.81626355648040768 0
vt 0.5122796893119812 0.897327184677124 0
vt 0.55232191085815432 0.897327184677124 0
vt 0.44794461131095888 0.897327184677124 0
vt 0.48884436488151552 0.897327184677124 0
vt 0.0338902473449707 0.7061437964439392 0
vt 0.2807350754737854 0.7061437964439392 0
vt 0.2807350754737854 0.48622575402259824 0
vt 0.0338902473449707 0.48622575402259824 0
vt 0.05587649345397949 0.68629014492034912 0
vt 0.2589271068572998 0.68629014492034912 0
vt 0.25865066051483156 0.5083210468292236 0
vt 0.05587649345397949 0.5083210468292236 0
vt 0.39174234867095944 0.45723679661750792 0
vt 0.41513437032699584 0.45723679661750792 0
vt 0.44668447971343992 0.61002194881439208 0
vt 0.01686589792370796 0.12953309714794158 0
vt 0.7615325450897216 0.12953309714794158 0
vt 0.7615325450897216 0.43282416462898256 0
vt 0.01686589792370796 0.01667268015444278 0
vt 0.01870113611221313 0.92940974235534672 0
vt 0.01686589792370796 0.43282416462898256 0
vt 0.26137512922286988 0.43282416462898256 0
vt 0.44668447971343992 0.45003986358642576 0
vt 0.50272583961486816 0.63139528036117552 0
vt 0.4500054717063904 0.79481959342956544 0
vt 0.68534272909164432 0.79481959342956544 0
vt 0.5941656827926636 0.79481959342956544 0
vt 0.50272583961486816 0.79481959342956544 0
vt 0.57617640495300296 0.897327184677124 0
vt 0.57617640495300296 0.81626355648040768 0
vt 0.76085436344146736 0.71831583976745608 0
vt 0.76085424423217776 0.79481959342956544 0
vt 0.76085436344146736 0.63139528036117552 0
vt 0.48884436488151552 0.93051016330718992 0
vt 0.5122796893119812 0.93051016330718992 0
vt 0.73026192188262944 0.61002194881439208 0
vt 0.73026204109191888 0.45003986358642576 0
vt 0.29869887232780456 0.43282416462898256 0
# 70 texture coords

g pCube1
usemtl lambert1
s 1
f 17/17/1 18/18/2 22/22/3 23/45/4
f 33/33/5 34/67/6 35/66/7 36/36/8
f 15/15/9 16/70/10 24/54/11 19/19/12
f 10/48/13 11/11/14 6/6/15 4/4/16
f 12/12/17 9/49/18 3/50/19 5/5/20
f 18/18/21 13/13/22 21/21/23 22/22/24
f 2/51/25 8/8/26 11/11/27 10/48/28
f 14/14/29 15/15/30 19/19/31 20/20/32
f 7/7/33 1/1/34 9/49/35 12/12/36
f 12/12/37 15/15/38 14/14/39 7/7/40
f 5/5/41 16/70/42 15/15/43 12/12/44
f 3/68/45 17/47/46 16/55/47 5/69/48
f 41/41/49 42/42/50 43/43/51 44/44/52
f 1/52/53 13/13/54 18/18/55 9/9/56
f 20/20/57 19/19/58 11/11/59 8/8/60
f 22/22/61 21/21/62 2/2/63 10/10/64
f 23/45/65 22/22/66 10/10/67 4/46/68
f 24/54/69 23/53/70 4/4/71 6/6/72
f 19/19/73 24/54/74 6/6/75 11/11/76
f 16/16/77 17/56/78 26/26/79 25/25/80
f 17/56/81 23/23/82 27/27/83 26/26/84
f 23/23/85 24/24/86 28/28/87 27/27/88
f 24/24/89 16/65/90 25/63/91 28/28/92
f 25/25/93 26/26/94 30/60/95 29/57/96
f 26/26/97 27/27/98 31/59/99 30/60/100
f 27/27/101 28/28/102 32/58/103 31/59/104
f 28/28/105 25/63/106 29/64/107 32/58/108
f 29/29/109 30/30/110 34/34/111 33/33/112
f 30/30/113 31/62/114 35/61/115 34/34/116
f 31/31/117 32/32/118 36/36/119 35/35/120
f 32/32/121 29/29/122 33/33/123 36/36/124
f 9/9/125 18/18/126 38/38/127 37/37/128
f 18/18/129 17/17/130 39/39/131 38/38/132
f 17/17/133 3/3/134 40/40/135 39/39/136
f 3/3/137 9/9/138 37/37/139 40/40/140
f 37/37/141 38/38/142 42/42/143 41/41/144
f 38/38/145 39/39/146 43/43/147 42/42/148
f 39/39/149 40/40/150 44/44/151 43/43/152
f 40/40/153 37/37/154 41/41/155 44/44/156
#39 polygons

