# Aspose.3D Wavefront OBJ Exporter
# Copyright 2004-2019 Aspose Pty Ltd.
# File created: 2/26/2020 12:26:44 AM

mtllib Wall_Corner.mtl

#
# object Wall_Corner
#

v -250 -1.13686837721616E-13 -210
v -250 500 -210
v 209.75732421875 500 -210
v -250 500 -250
v 250 500 -250
v -250 -1.13686837721616E-13 -250
v 210.24267578125 -5.22931849732122E-14 249.9984130859375
v 210.24267578125 500 249.9984130859375
v 250.4853515625 -4.60128219163455E-14 250.00146484375
v 250.4853515625 500 250.00146484375
v -250 460 -210
v 209.75732421875 460 -210
v 210.24267578125 460 249.9984130859375
v 250.4852294921875 460 250.00146484375
v 250 460 -250
v -250 460 -250
v -250 49.9999923706054688 -210
v 209.75732421875 49.9999923706054688 -210
v 210.24267578125 49.9999923706054688 249.9984130859375
v 250.4853515625 50.00000381469726562 250.00146484375
v 250 50.00000381469726562 -250
v -250 50.00000381469726562 -250
v -250 470 -208.50132751464843752
v 208.25732421875 470 -208.4984130859375
v 208.25732421875 500 -208.4984130859375
v -250 500 -208.50132751464843752
v 208.50039672851562496 470 250.0015869140625
v 208.50039672851562496 500 250.0015869140625
v 251.5 470 -251.50146484375
v -250 470 -251.49867248535156248
v -250 500 -251.49867248535156248
v 251.5 500 -251.50146484375
v 252.22752380371093752 470 249.99853515625
v 252.227630615234375 500 249.99853515625
v -250 39.9999923706054688 -208.50132751464843752
v 208.25732421875 39.9999923706054688 -208.4984130859375
v -250 -1.13686837721616E-13 -208.50132751464843752
v 208.25732421875 -1.13745357533876E-13 -208.4984130859375
v 208.50039672851562496 39.9999923706054688 250.0015869140625
v 208.50039672851562496 -5.24414496202996E-14 250.0015869140625
v 252.227630615234375 40.00000381469726562 249.99853515625
v 251.5 40.00000381469726562 -251.50146484375
v 252.227630615234375 -4.65538252478886E-14 249.99853515625
v 251.5 -1.14044841278971E-13 -251.50146484375
v -250 40.00000381469726562 -251.49867248535156248
v -250 -1.13686837721616E-13 -251.49867248535156248
# 46 vertices

vn 0.00326981837861239 0 0.99999475479125984
vn 0.00326981837861239 0 0.99999475479125984
vn -0.02947965636849403 0 0.99956542253494256
vn -0.02947965636849403 0 0.99956542253494256
vn 0 1 -4.30422915087547E-07
vn 0 1 -3.68535324923869E-07
vn 0 1 0
vn 0 1 0
vn 0.00298808934167027 8.45170267105289E-10 -0.99999552965164192
vn 0.00298808934167027 8.45170267105289E-10 -0.99999552965164192
vn -0.02693900093436241 -2.02768415391574E-08 -0.99963718652725216
vn -0.02693900093436241 -2.02768415391574E-08 -0.99963718652725216
vn -1 0 0
vn -1 0 0
vn -1 0 0
vn -1 0 0
vn 0.0481632873415947 0 0.99883955717086784
vn 0.04816323518753052 -1.81619183668019E-12 0.9988394975662232
vn 0.04648691788315773 -7.31652392005344E-08 0.9989189505577088
vn 0.04649215564131737 -7.29870279769784E-08 0.9989187121391296
vn -0.99968349933624272 0 0.02515676245093345
vn -0.99968349933624272 0 0.02515676245093345
vn -0.99999761581420896 0 -0.00220827129669487
vn -0.99999761581420896 0 -0.00220827129669487
vn 0.99977624416351312 -3.90125615012948E-06 0.0211565438657999
vn 0.99977618455886848 -3.90125615012948E-06 0.02115654200315475
vn 0.9999921917915344 -2.31235503633798E-06 -0.00396635290235281
vn 0.9999921917915344 -2.31235503633798E-06 -0.00396635290235281
vn 0 1 -2.71037322363554E-07
vn 0 1 -2.38099190141838E-07
vn 0 1 -3.68535324923869E-07
vn 0 1 -4.30422915087547E-07
vn 0 0 1
vn 0 0 1
vn 0 0 1
vn 0 0 1
vn -0.99999946355819696 0 0.00105295598041266
vn -0.99999946355819696 0 0.00105295598041266
vn -0.99999952316284176 0 0.00105288263875991
vn -0.99999952316284176 0 0.00105288263875991
vn 0.04816323518753052 -1.81619183668019E-12 0.9988394975662232
vn 0.0481632873415947 0 0.99883955717086784
vn 0.04815890267491341 6.58354526450466E-09 0.99883967638015744
vn 0.04815883189439774 6.58354526450466E-09 0.99883967638015744
vn 0.99999958276748656 2.86378877945026E-07 -0.00097249867394566
vn 0.99999958276748656 2.86378877945026E-07 -0.00097249867394566
vn 0.99999958276748656 1.27279534467561E-07 -0.00097246497170999
vn 0.99999958276748656 1.27279534467561E-07 -0.00097246497170999
vn 0 0 -1
vn 0 0 -1
vn 0 0 -1
vn 0 0 -1
vn -1 0 0
vn -1 0 0
vn -1 0 0
vn -1 0 0
vn -0.02947965078055858 0 0.99956542253494256
vn 0.00326982024125754 0 0.99999475479125984
vn 0.00326982024125754 0 0.99999475479125984
vn -0.02947965078055858 0 0.99956542253494256
vn -0.99999755620956416 0 -0.00220827129669487
vn -0.99968349933624272 0 0.0251567754894495
vn -0.99968349933624272 0 0.0251567754894495
vn -0.99999755620956416 0 -0.00220827129669487
vn 0.04815883189439774 6.58354526450466E-09 0.99883967638015744
vn 0.04815890267491341 6.58354526450466E-09 0.99883967638015744
vn 0.04644563049077988 0 0.9989207983016968
vn 0.04644039273262024 0 0.99892103672027584
vn 0.99977624416351312 4.87657018766186E-07 0.02115654572844505
vn 0.99977624416351312 4.87657018766186E-07 0.02115654572844505
vn 0.9999921321868896 0 -0.00396647397428751
vn 0.9999921321868896 0 -0.00396647397428751
vn 0.00298809260129928 -6.33878394218357E-10 -0.99999552965164192
vn 0.00298809260129928 -6.33878394218357E-10 -0.99999552965164192
vn -0.026938671246171 1.5207628933922E-08 -0.99963712692260736
vn -0.026938671246171 1.5207628933922E-08 -0.99963712692260736
vn -1 0 0
vn -1 0 0
vn -1 0 0
vn -1 0 0
vn -0.67634183168411256 -0.29423651099205016 0.6752678751945496
vn -0.67634189128875736 -0.2942364811897278 0.67526775598526
vn -0.01438413839787244 -0.21255801618099212 0.97704261541366576
vn -0.01438414119184017 -0.21255803108215332 0.97704261541366576
vn 0 1 6.78544509469248E-08
vn 0 1 -4.30422915087547E-07
vn 0 1 0
vn 0 1 0
vn -1 0 0
vn -1 0 0
vn -1 0 0
vn -1 0 0
vn -0.97453612089157104 -0.22386740148067476 0.01275613903999328
vn -0.97453618049621584 -0.22386743128299712 0.01275614183396101
vn -0.67634189128875736 -0.2942364811897278 0.67526775598526
vn -0.67634183168411256 -0.29423651099205016 0.6752678751945496
vn 0.0481632873415947 0 0.99883955717086784
vn 0.04649215564131737 -7.29870279769784E-08 0.9989187121391296
vn 0.00182565476279705 0 0.99999839067459104
vn 0.00182565452996641 0 0.99999833106994624
vn 0 1 -1.15464422378864E-06
vn 0 1 -2.71037322363554E-07
vn 0 1 -4.30422915087547E-07
vn 0 1 6.78544509469248E-08
vn 0.67493611574172976 -0.29371652007102968 -0.67689871788024904
vn 0.67493617534637448 -0.29371654987335204 -0.67689871788024904
vn -0.0131858866661787 -0.21236298978328704 -0.97710192203521728
vn -0.01318588759750127 -0.21236297488212584 -0.97710192203521728
vn -1 0 0
vn -1 0 0
vn -1 0 0
vn -1 0 0
vn 0 1 -3.68535324923869E-07
vn 0 1 3.11345438319677E-08
vn 0 1 0
vn 0 1 0
vn 0.97460681200027472 -0.22370664775371552 0.00985428877174854
vn 0.97460681200027472 -0.22370666265487672 0.00985428877174854
vn 0.67493617534637448 -0.29371654987335204 -0.67689871788024904
vn 0.67493611574172976 -0.29371652007102968 -0.67689871788024904
vn 0 1 -2.38099190141838E-07
vn 0 1 -5.32050762558356E-07
vn 0 1 3.11345438319677E-08
vn 0 1 -3.68535324923869E-07
vn 0.04648691788315773 -7.31652392005344E-08 0.9989189505577088
vn 0.04816323518753052 -1.81619183668019E-12 0.9988394975662232
vn 0.00168153317645192 -4.88726836778142E-09 0.99999868869781488
vn 0.00168153306003659 -4.88726792369221E-09 0.99999868869781488
vn -0.67634165287017824 0.29423621296882628 0.67526823282241824
vn -0.67634159326553344 0.29423618316650392 0.67526823282241824
vn -0.01438415423035621 0.21255822479724884 0.97704255580902096
vn -0.01438415702432394 0.2125582844018936 0.97704261541366576
vn -1 0 0
vn -1 0 0
vn -1 0 0
vn -1 0 0
vn -0.97453594207763664 0.22386834025382996 0.01275592669844627
vn -0.97453594207763664 0.22386835515499116 0.01275592856109142
vn -0.67634159326553344 0.29423618316650392 0.67526823282241824
vn -0.67634165287017824 0.29423621296882628 0.67526823282241824
vn 0.04644563049077988 0 0.9989207983016968
vn 0.04815890267491341 6.58354526450466E-09 0.99883967638015744
vn 0.00181853678077459 0 0.99999839067459104
vn 0.00181853654794394 0 0.99999839067459104
vn 0.97460716962814336 0.22370466589927672 0.00985409226268529
vn 0.97460711002349856 0.22370468080043792 0.00985409226268529
vn 0.67493462562561032 0.29371702671051024 -0.67690002918243408
vn 0.67493462562561032 0.29371702671051024 -0.67689996957778928
vn 0.04815883189439774 6.58354526450466E-09 0.99883967638015744
vn 0.04644039273262024 0 0.99892103672027584
vn 0.0016784097533673 0 0.99999862909317024
vn 0.00167840963695198 0 0.99999868869781488
vn 0.67493462562561032 0.29371702671051024 -0.67689996957778928
vn 0.67493462562561032 0.29371702671051024 -0.67690002918243408
vn -0.01318588573485612 0.21236295998096468 -0.97710198163986208
vn -0.0131858829408884 0.21236293017864228 -0.97710192203521728
vn -1 0 0
vn -1 0 0
vn -1 0 0
vn -1 0 0
# 160 vertex normals

vt 0.58401721715927128 0.29047417640686036 0
vt 0.58401721715927128 0.30580127239227296 0
vt 0.04620230197906494 0.33143806457519532 0
vt 0.02349710464477539 0.3081001043319702 0
vt 0.02349710464477539 0.29047417640686036 0
vt 0.02349710464477539 0.3081001043319702 0
vt 0.303472638130188 0.30804276466369628 0
vt 0.303472638130188 0.28428101539611816 0
vt 0.32620853185653688 0.28436994552612304 0
vt 0.303472638130188 0.33137035369873048 0
vt 0.32621848583221436 0.28466224670410156 0
vt 0.30347251892089844 0.28461790084838868 0
vt 0.30347251892089844 0.3081001043319702 0
vt 0.30347251892089844 0.33143806457519532 0
vt 0.32621848583221436 0.29047417640686036 0
vt 0.32621848583221436 0.3070402145385742 0
vt 0.30347251892089844 0.29047417640686036 0
vt 0.30347251892089844 0.3081001043319702 0
vt 0.58401721715927128 0.05455344915390015 0
vt 0.58401721715927128 0.28332161903381348 0
vt 0.32621848583221436 0.05455344915390015 0
vt 0.30347251892089844 0.05455344915390015 0
vt 0.02349710464477539 0.28617715835571288 0
vt 0.02349710464477539 0.05455344915390015 0
vt 0.303472638130188 0.05460834503173828 0
vt 0.32620853185653688 0.05460834503173828 0
vt 0.58401721715927128 0.04888367652893066 0
vt 0.58389312028884888 0.02721166610717773 0
vt 0.32621848583221436 0.04888367652893066 0
vt 0.32621848583221436 0.02625268697738647 0
vt 0.32621848583221436 0.02627348899841308 0
vt 0.30347251892089844 0.02654451131820678 0
vt 0.30347251892089844 0.04888367652893066 0
vt 0.30347251892089844 0.02652662992477417 0
vt 0.02349710464477539 0.04888367652893066 0
vt 0.02349710464477539 0.02574580907821655 0
vt 0.32620853185653688 0.02625942230224609 0
vt 0.303472638130188 0.02647429704666137 0
vt 0.32620853185653688 0.29042470455169676 0
vt 0.32620853185653688 0.30674552917480468 0
vt 0.303472638130188 0.30804276466369628 0
vt 0.303472638130188 0.29042470455169676 0
vt 0.32620853185653688 0.02624481916427612 0
vt 0.32620853185653688 0.04894095659255981 0
vt 0.303472638130188 0.04894095659255981 0
vt 0.303472638130188 0.02646130323410034 0
vt 0.58389312028884888 0.04894095659255981 0
vt 0.58389312028884888 0.05460834503173828 0
vt 0.02362114191055298 0.30804276466369628 0
vt 0.58389312028884888 0.30653345584869384 0
vt 0.04800361394882202 0.33137035369873048 0
vt 0.58389312028884888 0.28406429290771484 0
vt 0.58389312028884888 0.29042470455169676 0
vt 0.58401721715927128 0.02638369798660278 0
vt 0.04631626605987549 0.33137035369873048 0
vt 0.04706251621246338 0.33143806457519532 0
vt 0.303472638130188 0.33137035369873048 0
vt 0.30347251892089844 0.3081001043319702 0
vt 0.303472638130188 0.30804276466369628 0
vt 0.32621848583221436 0.30700314044952392 0
vt 0.30347251892089844 0.33143806457519532 0
vt 0.32620853185653688 0.30671548843383788 0
vt 0.02362114191055298 0.05460834503173828 0
vt 0.02362114191055298 0.04894095659255981 0
vt 0.02362114191055298 0.29042470455169676 0
vt 0.02362114191055298 0.28622567653656004 0
vt 0.02362114191055298 0.02591496706008911 0
vt 0.02362114191055298 0.30804276466369628 0
# 68 texture coords

g Wall_Corner
usemtl WallsFloor_mat
s 1
f 24/53/1 25/50/2 26/40/3 23/39/4
f 3/51/5 5/49/6 4/7/7 2/10/8
f 32/68/9 29/65/10 30/42/11 31/41/12
f 4/59/13 16/8/14 11/9/15 2/62/16
f 13/11/17 14/12/18 10/13/19 8/60/20
f 27/15/21 28/16/22 25/2/23 24/1/24
f 34/18/25 33/17/26 29/5/27 32/6/28
f 8/14/29 10/58/30 5/4/31 3/3/32
f 18/48/33 12/52/34 11/9/35 17/26/36
f 19/21/37 13/11/38 12/20/39 18/19/40
f 14/12/41 13/11/42 19/21/43 20/22/44
f 14/12/45 20/22/46 21/24/47 15/23/48
f 15/66/49 21/63/50 22/25/51 16/8/52
f 22/25/53 17/26/54 11/9/55 16/8/56
f 37/43/57 38/28/58 36/47/59 35/44/60
f 38/54/61 40/30/62 39/29/63 36/27/64
f 20/22/65 19/21/66 7/31/67 9/32/68
f 41/33/69 43/34/70 44/36/71 42/35/72
f 42/64/73 44/67/74 46/46/75 45/45/76
f 1/37/77 17/26/78 22/25/79 6/38/80
f 12/52/81 24/53/82 23/39/83 11/9/84
f 25/55/85 3/51/86 2/10/87 26/57/88
f 2/62/89 11/9/90 23/39/91 26/40/92
f 13/11/93 27/15/94 24/1/95 12/20/96
f 13/11/97 8/60/98 28/16/99 27/15/100
f 28/61/101 8/14/102 3/3/103 25/56/104
f 29/65/105 15/66/106 16/8/107 30/42/108
f 16/8/109 4/59/110 31/41/111 30/42/112
f 5/49/113 32/68/114 31/41/115 4/7/116
f 33/17/117 14/12/118 15/23/119 29/5/120
f 10/58/121 34/18/122 32/6/123 5/4/124
f 10/13/125 14/12/126 33/17/127 34/18/128
f 36/47/129 18/48/130 17/26/131 35/44/132
f 17/26/133 1/37/134 37/43/135 35/44/136
f 39/29/137 19/21/138 18/19/139 36/27/140
f 7/31/141 19/21/142 39/29/143 40/30/144
f 20/22/145 41/33/146 42/35/147 21/24/148
f 20/22/149 9/32/150 43/34/151 41/33/152
f 21/63/153 42/64/154 45/45/155 22/25/156
f 6/38/157 22/25/158 45/45/159 46/46/160
#40 polygons

